<?xml version="1.0" standalone="no"?>
<!DOCTYPE svg PUBLIC "-//W3C//DTD SVG 20010904//EN"
 "http://www.w3.org/TR/2001/REC-SVG-20010904/DTD/svg10.dtd">
<svg version="1.0" xmlns="http://www.w3.org/2000/svg"
 width="240.000000pt" height="101.000000pt" viewBox="0 0 240.000000 101.000000"
 preserveAspectRatio="xMidYMid meet">

<g transform="translate(0.000000,101.000000) scale(0.100000,-0.100000)"
fill="#000000" stroke="none">
<path d="M10 500 l0 -500 1195 0 1195 0 0 500 0 500 -1195 0 -1195 0 0 -500z
m515 356 c59 -28 118 -86 140 -138 8 -21 15 -40 15 -43 0 -3 -20 -5 -45 -5
-36 0 -46 4 -56 23 -34 65 -91 100 -165 100 -163 0 -248 -188 -141 -310 38
-43 81 -63 137 -63 74 0 125 46 106 95 -8 23 -164 21 -204 -2 -25 -14 -32 -15
-46 -4 -38 32 -11 71 49 71 23 0 45 3 48 7 4 3 -11 22 -33 40 -45 39 -50 61
-19 89 25 22 52 10 57 -27 4 -26 19 -49 32 -49 11 0 31 60 24 71 -3 5 0 18 6
29 8 15 19 20 38 18 36 -4 40 -31 12 -81 l-23 -40 42 24 c45 25 72 20 79 -15
6 -29 -18 -46 -67 -48 -25 -1 4 -4 64 -7 l110 -6 -3 -29 c-5 -41 -31 -90 -157
-285 -83 -128 -113 -167 -121 -158 -25 28 -227 350 -245 393 -31 70 -24 174
16 239 57 91 133 134 240 134 43 1 74 -6 110 -23z m295 -366 c0 -253 -4 -390
-10 -390 -6 0 -10 137 -10 390 0 253 4 390 10 390 6 0 10 -137 10 -390z m352
360 c35 -10 36 -11 25 -40 -10 -28 -15 -30 -42 -23 -52 13 -86 7 -112 -19 -21
-21 -25 -35 -25 -78 0 -64 28 -100 79 -100 30 0 33 3 33 29 0 25 -4 30 -27 33
-24 3 -28 8 -28 33 l0 30 65 0 65 0 3 -83 c3 -81 2 -82 -23 -92 -15 -6 -54
-10 -88 -10 -108 0 -157 51 -157 162 0 72 25 117 80 146 48 24 94 28 152 12z
m269 -80 c25 -14 49 -62 49 -100 l0 -30 -80 0 c-85 0 -94 -6 -59 -41 21 -21
31 -21 103 -3 23 5 26 3 26 -20 0 -34 -26 -46 -95 -46 -51 0 -60 3 -91 34 -30
30 -34 40 -34 85 0 56 19 104 47 120 23 14 109 14 134 1z m290 -21 c28 -30 35
-53 31 -114 -5 -69 -48 -105 -127 -105 -38 0 -52 5 -75 28 -35 35 -47 90 -31
142 17 56 52 80 118 80 49 0 58 -4 84 -31z m109 -375 l0 -96 46 51 c40 45 51
51 85 51 21 0 39 -4 39 -8 0 -4 -20 -28 -45 -52 -25 -24 -45 -48 -45 -53 0 -5
20 -35 45 -67 25 -32 45 -61 45 -64 0 -3 -18 -6 -39 -6 -36 0 -43 5 -72 45
-18 25 -37 44 -43 42 -6 -2 -12 -22 -14 -45 -3 -41 -4 -42 -38 -42 l-34 0 0
170 0 170 35 0 35 0 0 -96z m-651 67 c9 -6 11 -18 7 -35 -6 -25 -8 -26 -61
-20 -42 5 -60 3 -79 -10 -32 -20 -49 -80 -36 -125 14 -49 28 -61 71 -61 37 0
39 2 39 30 0 27 -3 30 -30 30 -27 0 -30 3 -30 30 l0 30 70 0 70 0 0 -84 c0
-96 2 -94 -95 -102 -111 -10 -175 49 -175 160 0 111 57 166 170 166 36 0 71
-4 79 -9z m262 -89 c24 -21 32 -38 36 -75 l6 -47 -82 0 c-44 0 -81 -4 -81 -8
0 -5 9 -17 20 -27 18 -16 61 -18 110 -4 10 3 16 -5 18 -22 3 -22 -2 -29 -29
-38 -65 -22 -141 -5 -173 40 -25 36 -22 129 5 163 43 54 120 62 170 18z m265
15 c4 -3 3 -18 0 -32 -6 -25 -10 -26 -47 -20 -52 9 -69 -6 -69 -61 0 -68 31
-86 103 -59 14 6 17 2 17 -24 0 -25 -6 -34 -26 -41 -114 -44 -205 57 -163 179
17 49 62 73 126 68 29 -2 56 -6 59 -10z m494 -2 c59 -30 79 -128 40 -192 -41
-67 -159 -67 -200 0 -28 45 -27 125 1 161 37 47 104 60 159 31z"/>
<path d="M1340 710 c-10 -19 -8 -20 35 -20 43 0 45 1 35 20 -6 12 -21 20 -35
20 -14 0 -29 -8 -35 -20z"/>
<path d="M1606 704 c-10 -27 -7 -89 6 -102 18 -18 56 -14 68 7 26 50 4 111
-39 111 -17 0 -31 -6 -35 -16z"/>
<path d="M1347 307 l-22 -22 44 -3 c49 -4 54 -1 46 21 -10 25 -44 28 -68 4z"/>
<path d="M2122 312 c-22 -14 -27 -78 -8 -107 33 -50 77 -25 78 44 1 60 -31 87
-70 63z"/>
</g>
</svg>
